<mxfile host="app.diagrams.net" agent="Mozilla/5.0 (X11; Linux x86_64) AppleWebKit/537.36 (KHTML, like Gecko) Chrome/140.0.0.0 Safari/537.36" version="28.2.3">
  <diagram name="Halaman-1" id="fVaG4fxkSNwADPhYDmTG">
    <mxGraphModel dx="668" dy="522" grid="1" gridSize="10" guides="1" tooltips="1" connect="1" arrows="1" fold="1" page="1" pageScale="1" pageWidth="1169" pageHeight="827" math="0" shadow="0">
      <root>
        <mxCell id="0" />
        <mxCell id="1" parent="0" />
        <mxCell id="3s2Nf08JGnsYUdywj7sN-7" value="" style="edgeStyle=orthogonalEdgeStyle;rounded=0;orthogonalLoop=1;jettySize=auto;html=1;labelBackgroundColor=none;fontColor=default;" edge="1" parent="1" source="3s2Nf08JGnsYUdywj7sN-1" target="3s2Nf08JGnsYUdywj7sN-6">
          <mxGeometry relative="1" as="geometry" />
        </mxCell>
        <mxCell id="3s2Nf08JGnsYUdywj7sN-1" value="Router Nexa" style="sketch=0;points=[[0.5,0,0],[1,0.5,0],[0.5,1,0],[0,0.5,0],[0.145,0.145,0],[0.8555,0.145,0],[0.855,0.8555,0],[0.145,0.855,0]];verticalLabelPosition=bottom;html=1;verticalAlign=top;aspect=fixed;align=center;pointerEvents=1;shape=mxgraph.cisco19.rect;prIcon=router;labelBackgroundColor=none;" vertex="1" parent="1">
          <mxGeometry x="250" y="40" width="50" height="50" as="geometry" />
        </mxCell>
        <mxCell id="3s2Nf08JGnsYUdywj7sN-3" value="Switch 26P&lt;div&gt;Linksys Server&lt;/div&gt;" style="sketch=0;points=[[0.015,0.015,0],[0.985,0.015,0],[0.985,0.985,0],[0.015,0.985,0],[0.25,0,0],[0.5,0,0],[0.75,0,0],[1,0.25,0],[1,0.5,0],[1,0.75,0],[0.75,1,0],[0.5,1,0],[0.25,1,0],[0,0.75,0],[0,0.5,0],[0,0.25,0]];verticalLabelPosition=bottom;html=1;verticalAlign=top;aspect=fixed;align=center;pointerEvents=1;shape=mxgraph.cisco19.rect;prIcon=l2_switch;labelBackgroundColor=none;" vertex="1" parent="1">
          <mxGeometry x="550" y="25" width="50" height="50" as="geometry" />
        </mxCell>
        <mxCell id="3s2Nf08JGnsYUdywj7sN-5" value="" style="edgeStyle=orthogonalEdgeStyle;rounded=0;orthogonalLoop=1;jettySize=auto;html=1;labelBackgroundColor=none;fontColor=default;" edge="1" parent="1" source="3s2Nf08JGnsYUdywj7sN-4" target="3s2Nf08JGnsYUdywj7sN-1">
          <mxGeometry relative="1" as="geometry" />
        </mxCell>
        <mxCell id="3s2Nf08JGnsYUdywj7sN-4" value="Modem Nexa" style="verticalAlign=top;verticalLabelPosition=bottom;labelPosition=center;align=center;html=1;outlineConnect=0;gradientDirection=north;strokeWidth=2;shape=mxgraph.networks.modem;labelBackgroundColor=none;" vertex="1" parent="1">
          <mxGeometry x="80" y="55" width="80" height="20" as="geometry" />
        </mxCell>
        <mxCell id="3s2Nf08JGnsYUdywj7sN-8" value="" style="edgeStyle=orthogonalEdgeStyle;rounded=0;orthogonalLoop=1;jettySize=auto;html=1;entryX=0;entryY=0.5;entryDx=0;entryDy=0;entryPerimeter=0;labelBackgroundColor=none;fontColor=default;" edge="1" parent="1" target="3s2Nf08JGnsYUdywj7sN-3">
          <mxGeometry relative="1" as="geometry">
            <mxPoint x="410" y="50" as="sourcePoint" />
            <mxPoint x="490" y="90" as="targetPoint" />
          </mxGeometry>
        </mxCell>
        <mxCell id="3s2Nf08JGnsYUdywj7sN-6" value="Router&lt;div&gt;Kampus&lt;/div&gt;" style="sketch=0;points=[[0.5,0,0],[1,0.5,0],[0.5,1,0],[0,0.5,0],[0.145,0.145,0],[0.8555,0.145,0],[0.855,0.8555,0],[0.145,0.855,0]];verticalLabelPosition=bottom;html=1;verticalAlign=top;aspect=fixed;align=center;pointerEvents=1;shape=mxgraph.cisco19.rect;prIcon=router;labelBackgroundColor=none;" vertex="1" parent="1">
          <mxGeometry x="360" y="40" width="50" height="50" as="geometry" />
        </mxCell>
        <mxCell id="3s2Nf08JGnsYUdywj7sN-9" value="AP Selasar" style="image;points=[];aspect=fixed;html=1;align=center;shadow=0;dashed=0;image=img/lib/allied_telesis/wireless/Access_Point_Indoor.svg;labelBackgroundColor=none;" vertex="1" parent="1">
          <mxGeometry x="750" y="22.69999999999999" width="36.6" height="54.6" as="geometry" />
        </mxCell>
        <mxCell id="3s2Nf08JGnsYUdywj7sN-10" style="edgeStyle=orthogonalEdgeStyle;rounded=0;orthogonalLoop=1;jettySize=auto;html=1;entryX=0;entryY=0.5;entryDx=0;entryDy=0;entryPerimeter=0;labelBackgroundColor=none;fontColor=default;" edge="1" parent="1">
          <mxGeometry relative="1" as="geometry">
            <mxPoint x="600" y="40" as="sourcePoint" />
            <mxPoint x="750" y="40" as="targetPoint" />
          </mxGeometry>
        </mxCell>
        <mxCell id="3s2Nf08JGnsYUdywj7sN-11" value="AP Kelas&lt;div&gt;133&lt;/div&gt;" style="image;points=[];aspect=fixed;html=1;align=center;shadow=0;dashed=0;image=img/lib/allied_telesis/wireless/Access_Point_Indoor.svg;labelBackgroundColor=none;" vertex="1" parent="1">
          <mxGeometry x="750" y="119.99999999999999" width="36.6" height="54.6" as="geometry" />
        </mxCell>
        <mxCell id="3s2Nf08JGnsYUdywj7sN-12" style="edgeStyle=orthogonalEdgeStyle;rounded=0;orthogonalLoop=1;jettySize=auto;html=1;entryX=0;entryY=0.549;entryDx=0;entryDy=0;entryPerimeter=0;labelBackgroundColor=none;fontColor=default;" edge="1" parent="1" source="3s2Nf08JGnsYUdywj7sN-3" target="3s2Nf08JGnsYUdywj7sN-11">
          <mxGeometry relative="1" as="geometry" />
        </mxCell>
        <mxCell id="3s2Nf08JGnsYUdywj7sN-17" value="" style="edgeStyle=orthogonalEdgeStyle;rounded=0;orthogonalLoop=1;jettySize=auto;html=1;entryX=0;entryY=0.183;entryDx=0;entryDy=0;entryPerimeter=0;labelBackgroundColor=none;fontColor=default;" edge="1" parent="1" source="3s2Nf08JGnsYUdywj7sN-13" target="3s2Nf08JGnsYUdywj7sN-15">
          <mxGeometry relative="1" as="geometry">
            <Array as="points">
              <mxPoint x="620" y="210" />
              <mxPoint x="620" y="210" />
            </Array>
          </mxGeometry>
        </mxCell>
        <mxCell id="3s2Nf08JGnsYUdywj7sN-13" value="Switch 26P&lt;div&gt;Linksys Lt2&lt;/div&gt;&lt;div&gt;Belakang&lt;/div&gt;" style="sketch=0;points=[[0.015,0.015,0],[0.985,0.015,0],[0.985,0.985,0],[0.015,0.985,0],[0.25,0,0],[0.5,0,0],[0.75,0,0],[1,0.25,0],[1,0.5,0],[1,0.75,0],[0.75,1,0],[0.5,1,0],[0.25,1,0],[0,0.75,0],[0,0.5,0],[0,0.25,0]];verticalLabelPosition=bottom;html=1;verticalAlign=top;aspect=fixed;align=center;pointerEvents=1;shape=mxgraph.cisco19.rect;prIcon=l2_switch;labelBackgroundColor=none;" vertex="1" parent="1">
          <mxGeometry x="550" y="202.3" width="50" height="50" as="geometry" />
        </mxCell>
        <mxCell id="3s2Nf08JGnsYUdywj7sN-14" style="edgeStyle=orthogonalEdgeStyle;rounded=0;orthogonalLoop=1;jettySize=auto;html=1;entryX=0;entryY=0.5;entryDx=0;entryDy=0;entryPerimeter=0;labelBackgroundColor=none;fontColor=default;" edge="1" parent="1" source="3s2Nf08JGnsYUdywj7sN-6" target="3s2Nf08JGnsYUdywj7sN-13">
          <mxGeometry relative="1" as="geometry">
            <Array as="points">
              <mxPoint x="520" y="60" />
              <mxPoint x="520" y="227" />
            </Array>
          </mxGeometry>
        </mxCell>
        <mxCell id="3s2Nf08JGnsYUdywj7sN-15" value="AP Kelas&lt;div&gt;121&lt;/div&gt;" style="image;points=[];aspect=fixed;html=1;align=center;shadow=0;dashed=0;image=img/lib/allied_telesis/wireless/Access_Point_Indoor.svg;labelBackgroundColor=none;" vertex="1" parent="1">
          <mxGeometry x="820" y="200" width="36.6" height="54.6" as="geometry" />
        </mxCell>
        <mxCell id="3s2Nf08JGnsYUdywj7sN-16" value="AP Kelas&lt;div&gt;123&lt;/div&gt;" style="image;points=[];aspect=fixed;html=1;align=center;shadow=0;dashed=0;image=img/lib/allied_telesis/wireless/Access_Point_Indoor.svg;labelBackgroundColor=none;" vertex="1" parent="1">
          <mxGeometry x="820" y="297.3" width="36.6" height="54.6" as="geometry" />
        </mxCell>
        <mxCell id="3s2Nf08JGnsYUdywj7sN-19" style="edgeStyle=orthogonalEdgeStyle;rounded=0;orthogonalLoop=1;jettySize=auto;html=1;entryX=0;entryY=0.233;entryDx=0;entryDy=0;entryPerimeter=0;fontColor=default;labelBackgroundColor=none;" edge="1" parent="1" source="3s2Nf08JGnsYUdywj7sN-13" target="3s2Nf08JGnsYUdywj7sN-16">
          <mxGeometry relative="1" as="geometry">
            <Array as="points">
              <mxPoint x="710" y="220" />
              <mxPoint x="710" y="310" />
            </Array>
          </mxGeometry>
        </mxCell>
        <mxCell id="3s2Nf08JGnsYUdywj7sN-20" value="AP Depan&lt;div&gt;Perpustakaan Lt1&lt;/div&gt;" style="image;points=[];aspect=fixed;html=1;align=center;shadow=0;dashed=0;image=img/lib/allied_telesis/wireless/Access_Point_Indoor.svg;labelBackgroundColor=none;" vertex="1" parent="1">
          <mxGeometry x="820" y="390" width="36.6" height="54.6" as="geometry" />
        </mxCell>
        <mxCell id="3s2Nf08JGnsYUdywj7sN-21" style="edgeStyle=orthogonalEdgeStyle;rounded=0;orthogonalLoop=1;jettySize=auto;html=1;entryX=0;entryY=0.366;entryDx=0;entryDy=0;entryPerimeter=0;fontColor=default;labelBackgroundColor=none;" edge="1" parent="1" source="3s2Nf08JGnsYUdywj7sN-13" target="3s2Nf08JGnsYUdywj7sN-20">
          <mxGeometry relative="1" as="geometry">
            <Array as="points">
              <mxPoint x="700" y="230" />
              <mxPoint x="700" y="410" />
            </Array>
          </mxGeometry>
        </mxCell>
      </root>
    </mxGraphModel>
  </diagram>
</mxfile>
